<mxfile host="app.diagrams.net" modified="2020-09-16T23:32:58.557Z" agent="5.0 (Windows NT 10.0; Win64; x64) AppleWebKit/537.36 (KHTML, like Gecko) Chrome/85.0.4183.102 Safari/537.36" etag="9AMa8d9DqDBFJluf24qY" version="13.6.6" type="github">
  <diagram name="Page-1" id="5f0bae14-7c28-e335-631c-24af17079c00">
    <mxGraphModel dx="1360" dy="753" grid="1" gridSize="10" guides="1" tooltips="1" connect="1" arrows="1" fold="1" page="1" pageScale="1" pageWidth="1100" pageHeight="850" background="#ffffff" math="0" shadow="0">
      <root>
        <mxCell id="0" />
        <mxCell id="1" parent="0" />
        <mxCell id="xj_ZxIdG9Tk36-y3mrUf-12" value="" style="rounded=0;whiteSpace=wrap;html=1;" parent="1" vertex="1">
          <mxGeometry x="30" y="130" width="1000" height="1240" as="geometry" />
        </mxCell>
        <mxCell id="xj_ZxIdG9Tk36-y3mrUf-8" style="edgeStyle=orthogonalEdgeStyle;rounded=0;orthogonalLoop=1;jettySize=auto;html=1;entryX=1;entryY=0.5;entryDx=0;entryDy=0;" parent="1" source="xj_ZxIdG9Tk36-y3mrUf-2" target="xj_ZxIdG9Tk36-y3mrUf-5" edge="1">
          <mxGeometry relative="1" as="geometry" />
        </mxCell>
        <mxCell id="xj_ZxIdG9Tk36-y3mrUf-9" style="edgeStyle=orthogonalEdgeStyle;rounded=0;orthogonalLoop=1;jettySize=auto;html=1;entryX=0.004;entryY=0.451;entryDx=0;entryDy=0;entryPerimeter=0;" parent="1" source="xj_ZxIdG9Tk36-y3mrUf-2" target="xj_ZxIdG9Tk36-y3mrUf-6" edge="1">
          <mxGeometry relative="1" as="geometry" />
        </mxCell>
        <mxCell id="xj_ZxIdG9Tk36-y3mrUf-2" value="&lt;p style=&quot;margin: 0px ; margin-top: 4px ; text-align: center&quot;&gt;&lt;b&gt;&lt;font style=&quot;font-size: 15px&quot;&gt;SRVAZARGSITPRU1&lt;/font&gt;&lt;/b&gt;&lt;/p&gt;&lt;p style=&quot;margin: 4px 0px 0px ; text-align: center ; font-size: 11px&quot;&gt;&lt;b&gt;&lt;font style=&quot;font-size: 11px&quot;&gt;(&lt;/font&gt;&lt;/b&gt;&lt;b&gt;IP PRIVADA: 172.16.90.30&lt;/b&gt;&lt;b&gt;)&lt;/b&gt;&lt;/p&gt;&lt;p style=&quot;margin: 0px ; margin-top: 4px ; text-align: center&quot;&gt;&lt;br&gt;&lt;i&gt;Productos ESRI Configurados:&lt;/i&gt;&lt;/p&gt;&lt;p style=&quot;margin: 0px ; margin-top: 4px ; text-align: center&quot;&gt;&lt;b&gt;ARCGIS PRO 2.5.2&lt;/b&gt;&lt;/p&gt;&lt;p style=&quot;margin: 0px ; margin-top: 4px ; text-align: center&quot;&gt;&lt;b&gt;ARCGIS DATA INTEROPERABILITY&lt;/b&gt;&lt;/p&gt;&lt;p style=&quot;margin: 0px ; margin-top: 4px ; text-align: center&quot;&gt;&lt;b&gt;ARCGIS DATA STORE:&lt;/b&gt;&lt;/p&gt;&lt;p style=&quot;margin: 4px 0px 0px ; text-align: center ; font-size: 11px&quot;&gt;&lt;font style=&quot;font-size: 11px&quot;&gt;- RELATIONAL DATA STORE&lt;/font&gt;&lt;/p&gt;&lt;p style=&quot;margin: 4px 0px 0px ; text-align: center ; font-size: 11px&quot;&gt;&lt;font style=&quot;font-size: 11px&quot;&gt;- TILED DATA STORE&lt;/font&gt;&lt;/p&gt;&lt;p style=&quot;margin: 0px ; margin-top: 4px ; text-align: center&quot;&gt;&lt;i&gt;Otras configuraciones:&lt;/i&gt;&lt;b&gt;&lt;br&gt;&lt;/b&gt;&lt;/p&gt;&lt;p style=&quot;margin: 0px ; margin-top: 4px ; text-align: center&quot;&gt;&lt;b&gt;SQL SERVER&lt;/b&gt;&lt;/p&gt;&lt;p style=&quot;margin: 0px ; margin-top: 4px ; text-align: center&quot;&gt;&lt;b&gt;ENTERPRISE GEODATABASE MS SQL SERVER&lt;/b&gt;&lt;/p&gt;&lt;br&gt;&lt;hr&gt;&lt;p style=&quot;font-size: 10px ; margin: 0px ; text-align: center&quot;&gt;DISCOS DUROS&lt;/p&gt;&lt;p style=&quot;font-size: 10px ; margin: 0px ; text-align: center&quot;&gt;&lt;br&gt;&lt;/p&gt;&lt;p style=&quot;margin: 0px ; margin-left: 8px ; text-align: left&quot;&gt;C (Windows): 126 GB&lt;/p&gt;&lt;p style=&quot;margin: 0px ; margin-left: 8px ; text-align: left&quot;&gt;D (Temporary Storage): 39.9 GB&lt;/p&gt;&lt;p style=&quot;margin: 0px ; margin-left: 8px ; text-align: left&quot;&gt;F (LOG_DB): 127 GB&lt;/p&gt;&lt;p style=&quot;margin: 0px ; margin-left: 8px ; text-align: left&quot;&gt;G (DATA_DB): 511 GB&amp;nbsp;&lt;/p&gt;&lt;hr&gt;&lt;p style=&quot;font-size: 10px ; margin: 0px ; text-align: center&quot;&gt;PROCESADOR&lt;/p&gt;&lt;p style=&quot;font-size: 10px ; margin: 0px ; text-align: center&quot;&gt;&lt;i&gt;&lt;br&gt;&lt;/i&gt;&lt;/p&gt;&lt;p style=&quot;margin: 0px ; margin-left: 8px ; text-align: left&quot;&gt;Intel Xeon CPU E5-2660 @ 2.20 Ghz&lt;/p&gt;&lt;hr&gt;&lt;p style=&quot;font-size: 10px ; margin: 0px ; text-align: center&quot;&gt;&lt;i&gt;RAM&lt;/i&gt;&lt;/p&gt;&lt;p style=&quot;font-size: 10px ; margin: 0px ; text-align: center&quot;&gt;&lt;i&gt;&lt;br&gt;&lt;/i&gt;&lt;/p&gt;&lt;p style=&quot;margin: 0px ; margin-left: 8px ; text-align: left&quot;&gt;8.00 GB&lt;/p&gt;&lt;hr&gt;&lt;p style=&quot;font-size: 10px ; margin: 0px ; text-align: center&quot;&gt;SISTEMA OPERATIVO&lt;/p&gt;&lt;p style=&quot;font-size: 10px ; margin: 0px ; text-align: center&quot;&gt;&lt;i&gt;&lt;br&gt;&lt;/i&gt;&lt;/p&gt;&lt;p style=&quot;margin: 0px ; margin-left: 8px ; text-align: left&quot;&gt;Windows - 64 Bits&lt;/p&gt;" style="shape=rect;html=1;overflow=fill;verticalAlign=top;align=left;whiteSpace=wrap;" parent="1" vertex="1">
          <mxGeometry x="400" y="800" width="250" height="510" as="geometry" />
        </mxCell>
        <mxCell id="xj_ZxIdG9Tk36-y3mrUf-4" value="&lt;p style=&quot;margin: 0px ; margin-top: 4px ; text-align: center&quot;&gt;&lt;b&gt;&lt;font style=&quot;font-size: 15px&quot;&gt;SRVAZARGSITPRU4&lt;/font&gt;&lt;/b&gt;&lt;/p&gt;&lt;p style=&quot;margin: 4px 0px 0px ; text-align: center ; font-size: 11px&quot;&gt;&lt;b&gt;&lt;font style=&quot;font-size: 11px&quot;&gt;(&lt;/font&gt;&lt;/b&gt;&lt;b&gt;IP PRIVADA: 172.16.90.33&lt;/b&gt;&lt;b&gt;)&lt;/b&gt;&lt;/p&gt;&lt;p style=&quot;margin: 4px 0px 0px ; text-align: center ; font-size: 11px&quot;&gt;&lt;b&gt;&lt;br&gt;&lt;/b&gt;&lt;/p&gt;&lt;p style=&quot;margin: 4px 0px 0px ; text-align: center&quot;&gt;&lt;i&gt;Productos ESRI&amp;nbsp; a configurarar:&lt;/i&gt;&lt;/p&gt;&lt;p style=&quot;margin: 4px 0px 0px ; text-align: center&quot;&gt;&lt;b&gt;PORTAL FOR ARCGIS&lt;/b&gt;&lt;/p&gt;&lt;p style=&quot;margin: 4px 0px 0px ; text-align: center&quot;&gt;&lt;b&gt;WEB ADAPTOR&lt;/b&gt;&lt;/p&gt;&lt;p style=&quot;margin: 4px 0px 0px ; text-align: center&quot;&gt;&lt;i&gt;Otras configuraciones:&lt;/i&gt;&lt;b&gt;&lt;br&gt;&lt;/b&gt;&lt;/p&gt;&lt;p style=&quot;margin: 4px 0px 0px ; text-align: center&quot;&gt;&lt;b&gt;INTERNET INFORMATION SERVER (IIS)&lt;/b&gt;&lt;/p&gt;&lt;br&gt;&lt;hr&gt;&lt;p style=&quot;font-size: 10px ; margin: 0px ; text-align: center&quot;&gt;DISCOS DUROS&lt;/p&gt;&lt;p style=&quot;font-size: 10px ; margin: 0px ; text-align: center&quot;&gt;&lt;br&gt;&lt;/p&gt;&lt;p style=&quot;margin: 0px ; margin-left: 8px ; text-align: left&quot;&gt;C (Windows): 126 GB&lt;/p&gt;&lt;p style=&quot;margin: 0px ; margin-left: 8px ; text-align: left&quot;&gt;D (Temporary Storage): 31.9 GB&lt;/p&gt;&lt;p style=&quot;margin: 0px ; margin-left: 8px ; text-align: left&quot;&gt;F (New Datos1): 511 GB&lt;/p&gt;&lt;p style=&quot;margin: 0px ; margin-left: 8px ; text-align: left&quot;&gt;G (New Datos2): 127 GB&lt;/p&gt;&lt;hr&gt;&lt;p style=&quot;font-size: 10px ; margin: 0px ; text-align: center&quot;&gt;PROCESADOR&lt;/p&gt;&lt;p style=&quot;font-size: 10px ; margin: 0px ; text-align: center&quot;&gt;&lt;i&gt;&lt;br&gt;&lt;/i&gt;&lt;/p&gt;&lt;p style=&quot;margin: 0px ; margin-left: 8px ; text-align: left&quot;&gt;Intel Xeon Platinum 8168 CPU @ 2.70 GHz&lt;/p&gt;&lt;hr&gt;&lt;p style=&quot;font-size: 10px ; margin: 0px ; text-align: center&quot;&gt;&lt;i&gt;RAM&lt;/i&gt;&lt;/p&gt;&lt;p style=&quot;font-size: 10px ; margin: 0px ; text-align: center&quot;&gt;&lt;i&gt;&lt;br&gt;&lt;/i&gt;&lt;/p&gt;&lt;p style=&quot;margin: 0px ; margin-left: 8px ; text-align: left&quot;&gt;8.00 GB&lt;/p&gt;&lt;hr&gt;&lt;p style=&quot;font-size: 10px ; margin: 0px ; text-align: center&quot;&gt;SISTEMA OPERATIVO&lt;/p&gt;&lt;p style=&quot;font-size: 10px ; margin: 0px ; text-align: center&quot;&gt;&lt;i&gt;&lt;br&gt;&lt;/i&gt;&lt;/p&gt;&lt;p style=&quot;margin: 0px ; margin-left: 8px ; text-align: left&quot;&gt;Windows - 64 Bits&lt;/p&gt;" style="shape=rect;html=1;overflow=fill;verticalAlign=top;align=left;whiteSpace=wrap;" parent="1" vertex="1">
          <mxGeometry x="400" y="180" width="250" height="510" as="geometry" />
        </mxCell>
        <mxCell id="xj_ZxIdG9Tk36-y3mrUf-10" style="edgeStyle=orthogonalEdgeStyle;rounded=0;orthogonalLoop=1;jettySize=auto;html=1;entryX=0;entryY=0.25;entryDx=0;entryDy=0;" parent="1" source="xj_ZxIdG9Tk36-y3mrUf-5" target="xj_ZxIdG9Tk36-y3mrUf-4" edge="1">
          <mxGeometry relative="1" as="geometry" />
        </mxCell>
        <mxCell id="xj_ZxIdG9Tk36-y3mrUf-5" value="&lt;p style=&quot;margin: 0px ; margin-top: 4px ; text-align: center&quot;&gt;&lt;b&gt;&lt;font style=&quot;font-size: 15px&quot;&gt;SRVAZARGSITPRU2&lt;/font&gt;&lt;/b&gt;&lt;/p&gt;&lt;p style=&quot;margin: 4px 0px 0px ; text-align: center ; font-size: 11px&quot;&gt;&lt;b&gt;&lt;font style=&quot;font-size: 11px&quot;&gt;(&lt;/font&gt;&lt;/b&gt;&lt;b&gt;IP PRIVADA: 172.16.90.31&lt;/b&gt;&lt;b&gt;)&lt;/b&gt;&lt;/p&gt;&lt;p style=&quot;margin: 0px ; margin-top: 4px ; text-align: center&quot;&gt;&lt;br&gt;&lt;i&gt;Productos ESRI Configurados:&lt;/i&gt;&lt;/p&gt;&lt;p style=&quot;margin: 0px ; margin-top: 4px ; text-align: center&quot;&gt;&lt;b&gt;ARCGIS FOR SERVER&lt;/b&gt;&lt;/p&gt;&lt;p style=&quot;margin: 0px ; margin-top: 4px ; text-align: center&quot;&gt;&lt;i&gt;Otras configuraciones:&lt;/i&gt;&lt;b&gt;&lt;br&gt;&lt;/b&gt;&lt;/p&gt;&lt;p style=&quot;margin: 0px ; margin-top: 4px ; text-align: center&quot;&gt;&lt;b&gt;-&lt;/b&gt;&lt;/p&gt;&lt;br&gt;&lt;hr&gt;&lt;p style=&quot;font-size: 10px ; margin: 0px ; text-align: center&quot;&gt;DISCOS DUROS&lt;/p&gt;&lt;p style=&quot;font-size: 10px ; margin: 0px ; text-align: center&quot;&gt;&lt;br&gt;&lt;/p&gt;&lt;p style=&quot;margin: 0px 0px 0px 8px&quot;&gt;C (Windows): 126 GB&lt;/p&gt;&lt;p style=&quot;margin: 0px 0px 0px 8px&quot;&gt;D (Temporary Storage): 39.9 GB&lt;/p&gt;&lt;p style=&quot;margin: 0px 0px 0px 8px&quot;&gt;F (New Datos1): 511 GB&lt;/p&gt;&lt;p style=&quot;margin: 0px 0px 0px 8px&quot;&gt;G (New Datos2): 127 GB&lt;/p&gt;&lt;hr&gt;&lt;p style=&quot;font-size: 10px ; margin: 0px ; text-align: center&quot;&gt;PROCESADOR&lt;/p&gt;&lt;p style=&quot;font-size: 10px ; margin: 0px ; text-align: center&quot;&gt;&lt;i&gt;&lt;br&gt;&lt;/i&gt;&lt;/p&gt;&lt;p style=&quot;margin: 0px ; margin-left: 8px ; text-align: left&quot;&gt;Intel Xeon CPU E5-2660 @ 2.20 Ghz&lt;/p&gt;&lt;hr&gt;&lt;p style=&quot;font-size: 10px ; margin: 0px ; text-align: center&quot;&gt;&lt;i&gt;RAM&lt;/i&gt;&lt;/p&gt;&lt;p style=&quot;font-size: 10px ; margin: 0px ; text-align: center&quot;&gt;&lt;i&gt;&lt;br&gt;&lt;/i&gt;&lt;/p&gt;&lt;p style=&quot;margin: 0px ; margin-left: 8px ; text-align: left&quot;&gt;8.00 GB&lt;/p&gt;&lt;hr&gt;&lt;p style=&quot;font-size: 10px ; margin: 0px ; text-align: center&quot;&gt;SISTEMA OPERATIVO&lt;/p&gt;&lt;p style=&quot;font-size: 10px ; margin: 0px ; text-align: center&quot;&gt;&lt;i&gt;&lt;br&gt;&lt;/i&gt;&lt;/p&gt;&lt;p style=&quot;margin: 0px ; margin-left: 8px ; text-align: left&quot;&gt;Windows - 64 Bits&lt;/p&gt;" style="shape=rect;html=1;overflow=fill;verticalAlign=top;align=left;whiteSpace=wrap;" parent="1" vertex="1">
          <mxGeometry x="50" y="500" width="250" height="510" as="geometry" />
        </mxCell>
        <mxCell id="xj_ZxIdG9Tk36-y3mrUf-11" style="edgeStyle=orthogonalEdgeStyle;rounded=0;orthogonalLoop=1;jettySize=auto;html=1;entryX=1.013;entryY=0.288;entryDx=0;entryDy=0;entryPerimeter=0;" parent="1" source="xj_ZxIdG9Tk36-y3mrUf-6" target="xj_ZxIdG9Tk36-y3mrUf-4" edge="1">
          <mxGeometry relative="1" as="geometry">
            <Array as="points">
              <mxPoint x="705" y="730" />
              <mxPoint x="705" y="327" />
            </Array>
          </mxGeometry>
        </mxCell>
        <mxCell id="xj_ZxIdG9Tk36-y3mrUf-6" value="&lt;p style=&quot;margin: 0px ; margin-top: 4px ; text-align: center&quot;&gt;&lt;b&gt;&lt;font style=&quot;font-size: 15px&quot;&gt;SRVAZARGSITPRU3&lt;/font&gt;&lt;/b&gt;&lt;/p&gt;&lt;p style=&quot;margin: 4px 0px 0px ; text-align: center ; font-size: 11px&quot;&gt;&lt;b&gt;&lt;font style=&quot;font-size: 11px&quot;&gt;(&lt;/font&gt;&lt;/b&gt;&lt;b&gt;IP PRIVADA: 172.16.90.32&lt;/b&gt;&lt;b&gt;)&lt;/b&gt;&lt;/p&gt;&lt;p style=&quot;margin: 0px ; margin-top: 4px ; text-align: center&quot;&gt;&lt;br&gt;&lt;i&gt;Productos ESRI Configurados:&lt;/i&gt;&lt;/p&gt;&lt;p style=&quot;margin: 0px ; margin-top: 4px ; text-align: center&quot;&gt;&lt;b&gt;ARCGIS IMAGE SERVER&lt;/b&gt;&lt;/p&gt;&lt;p style=&quot;margin: 0px ; margin-top: 4px ; text-align: center&quot;&gt;&lt;i&gt;Otras configuraciones:&lt;/i&gt;&lt;b&gt;&lt;br&gt;&lt;/b&gt;&lt;/p&gt;&lt;p style=&quot;margin: 0px ; margin-top: 4px ; text-align: center&quot;&gt;&lt;b&gt;-&lt;/b&gt;&lt;/p&gt;&lt;br&gt;&lt;hr&gt;&lt;p style=&quot;font-size: 10px ; margin: 0px ; text-align: center&quot;&gt;DISCOS DUROS&lt;/p&gt;&lt;p style=&quot;font-size: 10px ; margin: 0px ; text-align: center&quot;&gt;&lt;br&gt;&lt;/p&gt;&lt;p style=&quot;margin: 0px 0px 0px 8px&quot;&gt;C (Windows): 126 GB&lt;/p&gt;&lt;p style=&quot;margin: 0px 0px 0px 8px&quot;&gt;D (Temporary Storage): 31.9 GB&lt;/p&gt;&lt;p style=&quot;margin: 0px 0px 0px 8px&quot;&gt;F (New Datos1): 511 GB&lt;/p&gt;&lt;p style=&quot;margin: 0px 0px 0px 8px&quot;&gt;G (New Datos2): 127 GB&lt;/p&gt;&lt;hr&gt;&lt;p style=&quot;font-size: 10px ; margin: 0px ; text-align: center&quot;&gt;PROCESADOR&lt;/p&gt;&lt;p style=&quot;font-size: 10px ; margin: 0px ; text-align: center&quot;&gt;&lt;i&gt;&lt;br&gt;&lt;/i&gt;&lt;/p&gt;&lt;p style=&quot;margin: 0px ; margin-left: 8px ; text-align: left&quot;&gt;Intel Xeon Platinum 8168 CPU @ 2.70 GHz&lt;br&gt;&lt;/p&gt;&lt;hr&gt;&lt;p style=&quot;font-size: 10px ; margin: 0px ; text-align: center&quot;&gt;&lt;i&gt;RAM&lt;/i&gt;&lt;/p&gt;&lt;p style=&quot;font-size: 10px ; margin: 0px ; text-align: center&quot;&gt;&lt;i&gt;&lt;br&gt;&lt;/i&gt;&lt;/p&gt;&lt;p style=&quot;margin: 0px ; margin-left: 8px ; text-align: left&quot;&gt;8.00 GB&lt;/p&gt;&lt;hr&gt;&lt;p style=&quot;font-size: 10px ; margin: 0px ; text-align: center&quot;&gt;SISTEMA OPERATIVO&lt;/p&gt;&lt;p style=&quot;font-size: 10px ; margin: 0px ; text-align: center&quot;&gt;&lt;i&gt;&lt;br&gt;&lt;/i&gt;&lt;/p&gt;&lt;p style=&quot;margin: 0px ; margin-left: 8px ; text-align: left&quot;&gt;Windows - 64 Bits&lt;/p&gt;" style="shape=rect;html=1;overflow=fill;verticalAlign=top;align=left;whiteSpace=wrap;" parent="1" vertex="1">
          <mxGeometry x="759" y="500" width="250" height="510" as="geometry" />
        </mxCell>
        <mxCell id="xj_ZxIdG9Tk36-y3mrUf-13" value="Propuesta Servidores SIG Valor+ (Ambiente Pruebas)" style="text;html=1;strokeColor=none;fillColor=none;align=center;verticalAlign=middle;whiteSpace=wrap;rounded=0;" parent="1" vertex="1">
          <mxGeometry x="10" y="1350" width="440" height="20" as="geometry" />
        </mxCell>
      </root>
    </mxGraphModel>
  </diagram>
</mxfile>
